<svg xmlns="http://www.w3.org/2000/svg" xmlns:xlink="http://www.w3.org/1999/xlink" height="32" width="32"><defs><linearGradient id="a"><stop offset="0" stop-color="#929da5"/><stop offset="1" stop-color="#929da5" stop-opacity="0"/></linearGradient><linearGradient gradientTransform="translate(0 -68)" gradientUnits="userSpaceOnUse" y2="54.877" x2="57.503" y1="44.464" x1="47.784" id="b" xlink:href="#a"/></defs><circle r="148.5" cy="148.5" cx="148.5" fill="#e3e5e4" transform="scale(.10774)"/><path d="M55.538-28.714l-18.13 8.368L48.076-9.679c7.172 0 13.242-4.719 15.274-11.22l-7.811-7.815z" fill="url(#b)" transform="translate(-32.075 41.68)"/><path d="M26.902 21.333h-7.8v-8.889h3.069c.705 0 1.35.4 1.666 1.03L25.1 16l1.62 1.232c.55.34.885.94.885 1.586v1.813a.702.702 0 0 1-.703.702z" fill="#c63c22"/><path d="M19.556 21.333H5.333v-11.08c0-.753.611-1.364 1.365-1.364h11.493c.754 0 1.365.61 1.365 1.365v11.08z" fill="#f86e51"/><path d="M19.556 10.254c0-.754-.611-1.365-1.365-1.365h-2.28v12.444h3.645v-11.08z" fill="#dd523c"/><path d="M22.906 13.597l1.229 2.457h-3.556v-2.91h1.596c.31 0 .593.176.731.453z" fill="#d0d5d9"/><circle r="23.291" cy="198" cx="89.291" fill="#32373b" transform="scale(.10774)"/><circle r="9" cy="198" cx="89.291" fill="#484f54" transform="scale(.10774)"/><circle r="23.291" cy="198" cx="221.291" fill="#32373b" transform="scale(.10774)"/><circle r="9" cy="198" cx="221.292" fill="#484f54" transform="scale(.10774)"/></svg>